<mxfile host="app.diagrams.net" modified="2024-06-11T15:04:13.491Z" agent="Mozilla/5.0 (Macintosh; Intel Mac OS X 10_15_7) AppleWebKit/537.36 (KHTML, like Gecko) Chrome/124.0.0.0 Safari/537.36" version="24.5.3" etag="Arx1B5PYo8-M9D-1yMl4" type="github">
  <diagram name="第 1 页" id="S4BjCuTUG3Q-tDC-eohK">
    <mxGraphModel>
      <root>
        <mxCell id="0" />
        <mxCell id="1" parent="0" />
      </root>
    </mxGraphModel>
  </diagram>
</mxfile>
